Coordinates
version=1
nRows=25
nColumns=23
inDegrees=yes

Units are S.I. units (second, meters, Newtons, ...)
If the header above contains a line with 'inDegrees', this indicates whether rotational values are in degrees (yes) or radians (no).

endheader
time	pelvis_tilt	pelvis_list	pelvis_rotation	pelvis_tx	pelvis_ty	pelvis_tz	hip_flexion_r	hip_adduction_r	hip_rotation_r	knee_angle_r	knee_angle_r_beta	ankle_angle_r	subtalar_angle_r	mtp_angle_r	hip_flexion_l	hip_adduction_l	hip_rotation_l	knee_angle_l	knee_angle_l_beta	ankle_angle_l	subtalar_angle_l	mtp_angle_l
     15.00000000	     -6.36245490	     11.01843873	     16.08197606	      2.40812560	      0.98618711	      1.06159941	      0.20905836	    -18.43359616	    -16.06020510	    110.31581693	      1.92537422	    -19.45527437	    -26.35755999	      0.00000000	     31.04701459	     21.63529910	      3.75586900	     41.04248155	      0.71632644	     12.04817052	     -4.82566692	      0.00000000
     15.00666667	     -6.09639697	     10.81370476	     16.30028705	      2.40449941	      0.98149553	      1.06208473	      2.82285571	    -18.71741536	    -14.74798209	    113.08818886	      1.97376124	    -18.31681612	    -25.92456512	      0.00000000	     30.59677405	     21.57196963	      4.37838213	     43.99926518	      0.76793205	     14.03325594	     -5.47413330	      0.00000000
     15.01333333	     -5.68304965	     10.51170120	     16.47873253	      2.40091437	      0.97762682	      1.06270699	      5.42407546	    -18.81148816	    -13.41578828	    115.49912450	      2.01584001	    -17.17798719	    -25.16916951	      0.00000000	     29.70312695	     21.29192469	      5.07888424	     46.51831899	      0.81189783	     16.26138726	     -5.77075447	      0.00000000
     15.02000000	     -5.31676556	     10.19202917	     16.52820621	      2.39743504	      0.97448941	      1.06350481	      8.24883744	    -18.83697651	    -11.93246011	    117.57786285	      2.05212083	    -15.98842377	    -24.25481129	      0.00000000	     28.54779921	     20.85477822	      5.70129069	     48.49907313	      0.84646851	     18.62231635	     -5.60244843	      0.00000000
     15.02666667	     -4.88578782	      9.81564215	     16.52387526	      2.39425683	      0.97223560	      1.06433165	     11.06039703	    -18.72707879	    -10.49579551	    119.23217274	      2.08099399	    -14.80221595	    -23.18927694	      0.00000000	     27.00394660	     20.24227476	      6.36716693	     49.95825266	      0.87193600	     20.96504160	     -5.24822649	      0.00000000
     15.03333333	     -4.46759104	      9.38459962	     16.44105714	      2.39143977	      0.97087753	      1.06514131	     13.92311073	    -18.50727861	     -9.11118901	    120.45057785	      2.10225917	    -13.62034467	    -22.04711625	      0.00000000	     25.16867564	     19.45107477	      7.00251413	     50.87737105	      0.88797764	     23.20356180	     -4.69509879	      0.00000000
     15.04000000	     -3.99828623	      8.87368134	     16.27091422	      2.38905609	      0.97045909	      1.06590218	     16.71327408	    -18.11802063	     -7.85737928	    121.21279161	      2.11556231	    -12.45867764	    -20.89953388	      0.00000000	     23.01272864	     18.46568924	      7.63704934	     51.29186872	      0.89521199	     25.16145887	     -4.10460761	      0.00000000
     15.04666667	     -3.51526264	      8.30796223	     16.03123034	      2.38730230	      0.97107418	      1.06654126	     19.38482933	    -17.61053004	     -6.78425343	    121.48579878	      2.12032718	    -11.30588914	    -19.79864639	      0.00000000	     20.55502662	     17.31758689	      8.23481974	     51.14634138	      0.89267206	     26.72099910	     -3.59078196	      0.00000000
     15.05333333	     -3.10401878	      7.69081781	     15.70304021	      2.38608921	      0.97252223	      1.06697734	     22.02273822	    -17.00949067	     -5.85287838	    121.31180777	      2.11729047	    -10.26449747	    -18.97621732	      0.00000000	     17.92876827	     16.12200920	      8.89954685	     50.48321636	      0.88109834	     27.74236108	     -3.44814642	      0.00000000
     15.06000000	     -2.74482113	      7.02162813	     15.27696887	      2.38558548	      0.97481660	      1.06737255	     24.54591648	    -16.29983704	     -5.11268626	    120.68889324	      2.10641856	     -9.16791013	    -18.21719854	      0.00000000	     15.16077482	     14.75329870	      9.33228471	     49.34417570	      0.86121833	     28.33058925	     -3.21866195	      0.00000000
     15.06666667	     -1.77843306	      6.12295680	     14.86384065	      2.38612858	      0.97893498	      1.06767583	     26.02973811	    -15.16793751	     -4.99556734	    119.41094520	      2.08411416	     -8.21767104	    -17.78086113	      0.00000000	     11.55112930	     12.84003995	      9.63815749	     47.71964028	      0.83286484	     28.60402204	     -2.26741908	      0.00000000
     15.07333333	     -1.03787130	      5.05897436	     14.35870895	      2.38716063	      0.98345827	      1.06796670	     27.60452072	    -13.84600080	     -5.03347384	    117.76371340	      2.05536454	     -7.38139772	    -17.71496915	      0.00000000	      8.12021362	     10.80466493	      9.79574468	     45.76779021	      0.79879863	     28.56788106	     -1.57097804	      0.00000000
     15.08000000	     -0.35702725	      3.88124087	     13.81015638	      2.38874524	      0.98853914	      1.06823613	     29.00577354	    -12.37841237	     -5.27691411	    115.73656019	      2.01998404	     -6.55286704	    -17.86122549	      0.00000000	      4.68498194	      8.62946858	      9.68641681	     43.51156848	      0.75942013	     28.19560944	     -0.67793192	      0.00000000
     15.08666667	      0.23102686	      2.61264505	     13.19967520	      2.39080603	      0.99404822	      1.06854336	     30.28322909	    -10.78524375	     -5.65735899	    113.36583204	      1.97860703	     -5.76074852	    -18.17508088	      0.00000000	      1.28665884	      6.40777075	      9.35992647	     40.97290889	      0.71511216	     27.21611824	      0.12534995	      0.00000000
     15.09333333	     -0.11822768	      1.61814553	     12.33350873	      2.39285642	      0.99856410	      1.06900356	     32.54778611	     -9.54139635	     -5.58027221	    110.98182179	      1.93699820	     -4.86236860	    -18.31444047	      0.00000000	     -1.17012975	      4.83214358	      8.73194394	     38.29722296	      0.66841264	     25.13279247	      0.30415211	      0.00000000
     15.10000000	      0.85446932	      0.07356125	     11.77018940	      2.39597454	      1.00566955	      1.06930272	     32.80021439	     -7.54205545	     -6.47770894	    107.78475199	      1.88119881	     -4.33607758	    -19.09348474	      0.00000000	     -5.14121762	      2.38104232	      8.27631387	     35.11868633	      0.61293671	     22.41866586	      0.67611259	      0.00000000
     15.10666667	      0.85350106	     -1.14868358	     10.95081906	      2.39900035	      1.01147736	      1.06989143	     34.09089059	     -5.91909126	     -6.83872305	    104.64751849	      1.82644375	     -3.71095450	    -19.61551278	      0.00000000	     -8.07557714	      0.63143032	      7.45604799	     31.96719036	      0.55793272	     18.71380883	      0.63494093	      0.00000000
     15.11333333	      0.61480391	     -2.29094406	     10.00729826	      2.40217999	      1.01717153	      1.07072122	     35.45771254	     -4.29874606	     -7.06846877	    101.30481369	      1.76810255	     -3.18188049	    -20.11658277	      0.00000000	    -10.76111372	     -0.86707237	      6.43009838	     28.76220381	      0.50199516	     14.35762512	      0.45944513	      0.00000000
     15.12000000	      0.19241337	     -3.36753424	      9.03953666	      2.40556945	      1.02273823	      1.07166401	     36.80301231	     -2.72071311	     -7.25642667	     97.75504186	      1.70614734	     -2.65805192	    -20.45335767	      0.00000000	    -13.20881779	     -2.16932755	      5.25893467	     25.60968100	      0.44697325	      9.54885118	      0.29855726	      0.00000000
     15.12666667	     -0.46318942	     -4.27024952	      7.94880176	      2.40898253	      1.02804929	      1.07289520	     38.22025159	     -1.21514750	     -7.23957246	     94.04043536	      1.64131523	     -2.29769273	    -20.76211886	      0.00000000	    -15.32855104	     -3.16172798	      3.82410964	     22.61577425	      0.39471972	      4.50994642	      0.26155831	      0.00000000
     15.13333333	     -1.25872753	     -5.00819702	      6.82152915	      2.41240631	      1.03317755	      1.07424263	     39.58482635	      0.17707905	     -7.10233888	     90.15381400	      1.57348089	     -1.95779971	    -20.83625571	      0.00000000	    -17.18138883	     -3.88215714	      2.25314723	     19.85174501	      0.34647831	     -0.54328979	      0.27152596	      0.00000000
     15.14000000	     -2.10872474	     -5.58806331	      5.71779241	      2.41585101	      1.03818336	      1.07557958	     40.78571291	      1.41544504	     -6.90928952	     86.07459576	      1.50228510	     -1.71773288	    -20.78219957	      0.00000000	    -18.81713418	     -4.38105313	      0.55793921	     17.39242163	      0.30355502	     -5.35291879	      0.35977891	      0.00000000
     15.14666667	     -3.37508596	     -5.64789961	      4.37792667	      2.41892826	      1.04238155	      1.07728043	     42.33263376	      2.34190483	     -6.19510206	     82.00524806	      1.43126158	     -1.33400235	    -20.26634135	      0.00000000	    -19.74084411	     -4.22896572	     -1.46412212	     15.54606507	      0.27133002	     -9.58215996	      0.78862478	      0.00000000
     15.15333333	     -3.99485697	     -5.98815901	      3.38342609	      2.42224951	      1.04735614	      1.07846091	     42.85746283	      3.37821668	     -5.94211586	     77.51754133	      1.35293632	     -1.17733297	    -19.93474879	      0.00000000	    -21.26991798	     -4.38038569	     -3.04616177	     13.78778794	      0.24064230	    -13.28298518	      0.78774670	      0.00000000
     15.16000000	     -5.00699024	     -5.81392022	      2.25269490	      2.42513630	      1.05131786	      1.07975258	     43.72365222	      3.96567781	     -5.34199476	     73.08635578	      1.27559755	     -0.74602893	    -19.01849075	      0.00000000	    -22.04076422	     -3.95254136	     -4.85151843	     12.76099775	      0.22272143	    -16.11903232	      0.87997048	      0.00000000
